<?xml version="1.0" encoding="UTF-8" standalone="no"?>
<svg width="64" height="64" viewBox="0 0 64 64" 
    xmlns="http://www.w3.org/2000/svg">
    <path d="M61.9999 5.05994V4.99994C61.9798 4.86691 61.9463 4.73624 61.8999 4.60994V4.49994C61.8156 4.31765 61.7044 4.14909 61.5699 3.99994V3.99994C61.5032 3.91409 61.4296 3.83383 61.3499 3.75994L61.2499 3.68994H61.1999H61.1299C61.0044 3.60853 60.8703 3.54144 60.7299 3.48994H60.6699C60.5142 3.44044 60.353 3.41022 60.1899 3.39994H59.9999C59.8636 3.38589 59.7262 3.38589 59.5899 3.39994H59.4899C59.3263 3.43991 59.1683 3.50039 59.0199 3.57994V3.57994L2.99988 34.8599C2.65993 35.0505 2.38305 35.3362 2.20328 35.682C2.02351 36.0278 1.94868 36.4185 1.98798 36.8063C2.02729 37.194 2.17901 37.5618 2.42452 37.8645C2.67002 38.1671 2.99861 38.3915 3.36988 38.5099L17.9999 43.1799L23.6099 59.3999V59.4599C23.653 59.5746 23.7066 59.6851 23.7699 59.7899L23.8499 59.9099C23.913 59.9989 23.9832 60.0825 24.0599 60.1599L24.1499 60.2499C24.2546 60.3415 24.3685 60.422 24.4899 60.4899V60.4899C24.6139 60.5569 24.7446 60.6105 24.8799 60.6499H24.9999C25.1504 60.6877 25.3047 60.7078 25.4599 60.7099C25.6499 60.7067 25.8384 60.6764 26.0199 60.6199H26.1099C26.2805 60.5587 26.442 60.4746 26.5899 60.3699L26.6799 60.2999L26.8099 60.1999L38.1399 49.6399L51.2899 53.8499C51.5619 53.9371 51.8495 53.9649 52.1332 53.9315C52.4169 53.8982 52.6902 53.8045 52.9347 53.6567C53.1791 53.5089 53.3891 53.3104 53.5504 53.0747C53.7117 52.8389 53.8206 52.5713 53.8699 52.2899L61.9999 5.59994C62.0243 5.42077 62.0243 5.23911 61.9999 5.05994ZM30.8999 47.2399L33.8099 48.2399L29.4399 52.3399L30.8999 47.2399ZM50.3199 49.3299L38.2599 45.4799L30.1899 42.7899H29.9799H29.8399H29.4499H29.1999H29.0699L28.8499 42.8799L28.7199 42.9399L28.5299 43.0599L28.3899 43.1499L28.2399 43.2899L27.9999 43.3999L27.8899 43.5499C27.8467 43.6077 27.8066 43.6678 27.7699 43.7299C27.7699 43.7299 27.7699 43.8299 27.6999 43.8899C27.6299 43.9499 27.6399 43.9999 27.6199 44.0599V44.1399L25.3099 52.1399L21.4099 40.9199C21.4099 40.9199 21.4099 40.8399 21.3599 40.7999C21.3332 40.7351 21.3032 40.6717 21.2699 40.6099L21.1699 40.4499L21.0499 40.2899L20.9199 40.1499L20.7799 39.9999L20.6199 39.8899L20.4599 39.7899L20.2599 39.6999L20.1399 39.6499L8.99989 36.1099L50.9999 12.5699L32.7399 33.6899C32.4479 34.094 32.3174 34.5926 32.3739 35.088C32.4304 35.5833 32.6699 36.0397 33.0454 36.3677C33.4209 36.6956 33.9054 36.8715 34.4038 36.8608C34.9023 36.8501 35.3788 36.6537 35.7399 36.3099L56.7999 11.9999L50.3199 49.3299Z" fill="black"/>
</svg>
